<svg xmlns="http://www.w3.org/2000/svg" viewBox="0 0 64 64" width="128" height="128">
  <defs>
    <linearGradient id="g_new_document" x1="0" y1="0" x2="1" y2="1">
      <stop offset="0%" stop-color="#6E9CC4"/>
      <stop offset="100%" stop-color="#3B6693"/>
    </linearGradient>
    <filter id="shadow_new_document" x="-30%" y="-30%" width="160%" height="170%">
      <feDropShadow dx="0" dy="1.1" stdDeviation="0.8" flood-color="#000000" flood-opacity="0.38"/>
    </filter>
  </defs>
  <g filter="url(#shadow_new_document)">
    <rect x="2" y="2" width="60" height="60" rx="7" fill="url(#g_new_document)"/>
  </g>
  <path d="M9 3.3 H55" stroke="#ffffff" stroke-opacity="0.22" stroke-width="1.4" stroke-linecap="round"/>
  <path d="M9 60.7 H55" stroke="#000000" stroke-opacity="0.18" stroke-width="1.4" stroke-linecap="round"/>
  <rect x="2" y="2" width="60" height="60" rx="7" fill="none" stroke="#000000" stroke-opacity="0.12" stroke-width="1.2"/>
  
    <path d="M17 12 h16 l9 9 v27 a1.5 1.5 0 0 1 -3 3 H17 a1.5 1.5 0 0 1 -3 -3 V15 a1.5 1.5 0 0 1 3 -3z" fill="#ffffff"/>
    <path d="M33 12 v9 h9 z" fill="#ffffff" opacity="0.55"/>
    <rect x="19" y="42" width="16" height="3" rx="0.8" fill="#3B6693"/>
    <circle cx="40" cy="42" r="11" fill="#3B6693"/>
    <rect x="35.5" y="37.5" width="9" height="3" rx="0.6" fill="#ffffff"/>
    <rect x="38.5" y="34.5" width="3" height="9" rx="0.6" fill="#ffffff"/>
    
</svg>